<svg width="96" height="96" viewBox="0 0 96 96" fill="none" xmlns="http://www.w3.org/2000/svg" role="img" aria-label="Ledger Icon">
  <defs>
    <linearGradient id="lg-violet" x1="0" y1="0" x2="1" y2="1">
      <stop offset="0%" stop-color="#a78bfa"/>
      <stop offset="100%" stop-color="#60a5fa"/>
    </linearGradient>
    <linearGradient id="lg-blue" x1="0" y1="0" x2="0" y2="1">
      <stop offset="0%" stop-color="#0ea5e9"/>
      <stop offset="100%" stop-color="#1d4ed8"/>
    </linearGradient>
    <linearGradient id="lg-gold" x1="0" y1="0" x2="0" y2="1">
      <stop offset="0%" stop-color="#fcd34d"/>
      <stop offset="100%" stop-color="#f59e0b"/>
    </linearGradient>
  </defs>
  <!-- books stack -->
  <g transform="translate(10,38)">
    <rect x="0" y="0" rx="6" width="44" height="14" fill="#0f172a" stroke="url(#lg-violet)"/>
    <rect x="4" y="-10" rx="6" width="44" height="14" fill="#111a2b" stroke="#93c5fd" opacity=".9"/>
  </g>
  <!-- coins -->
  <g transform="translate(20,54)">
    <ellipse cx="12" cy="10" rx="10" ry="6" fill="url(#lg-gold)" stroke="#fde68a"/>
    <ellipse cx="22" cy="6" rx="10" ry="6" fill="url(#lg-gold)" stroke="#fde68a"/>
  </g>
  <!-- calculator -->
  <g transform="translate(48,46)">
    <rect x="0" y="0" width="34" height="24" rx="6" fill="url(#lg-blue)" stroke="#93c5fd"/>
    <rect x="6" y="4" width="22" height="6" rx="2" fill="#082f49" opacity=".7"/>
    <g fill="#e0f2fe">
      <rect x="6" y="12" width="4" height="4" rx="1"/>
      <rect x="12" y="12" width="4" height="4" rx="1"/>
      <rect x="18" y="12" width="4" height="4" rx="1"/>
      <rect x="24" y="12" width="4" height="4" rx="1"/>
      <rect x="6" y="18" width="4" height="4" rx="1"/>
      <rect x="12" y="18" width="4" height="4" rx="1"/>
      <rect x="18" y="18" width="4" height="4" rx="1"/>
      <rect x="24" y="18" width="4" height="4" rx="1"/>
    </g>
  </g>
  <!-- minimalist bust -->
  <g transform="translate(58,16)">
    <circle cx="8" cy="8" r="7" fill="#cbd5e1" stroke="#94a3b8"/>
    <path d="M1 26c2-6 8-10 15-10s13 4 15 10" fill="#d1d5db" stroke="#94a3b8" stroke-linecap="round"/>
    <path d="M4 24c3-3 7-4 12-4" stroke="#64748b" opacity=".6"/>
  </g>
</svg>
